<svg id="Layer_1" height="512" viewBox="0 0 512 512" width="512" xmlns="http://www.w3.org/2000/svg" xmlns:xlink="http://www.w3.org/1999/xlink" data-name="Layer 1"><linearGradient id="linear-gradient" gradientUnits="userSpaceOnUse" x1="64" x2="64" y1="466.122" y2="58.316"><stop offset=".322" stop-color="#a163f5"/><stop offset=".466" stop-color="#b074ee"/><stop offset=".752" stop-color="#d8a1dd"/><stop offset=".898" stop-color="#efbad3"/></linearGradient><linearGradient id="linear-gradient-3" x1="307.9" x2="307.9" xlink:href="#linear-gradient" y1="466.122" y2="58.316"/><linearGradient id="linear-gradient-4" x1="237.142" x2="237.142" xlink:href="#linear-gradient" y1="466.122" y2="58.316"/><linearGradient id="linear-gradient-5" x1="270.625" x2="270.625" xlink:href="#linear-gradient" y1="466.122" y2="58.316"/><linearGradient id="linear-gradient-6" x1="200.375" x2="200.375" xlink:href="#linear-gradient" y1="466.122" y2="58.316"/><linearGradient id="linear-gradient-7" x1="256" x2="256" xlink:href="#linear-gradient" y1="466.122" y2="58.316"/><path d="m64 284.843a6 6 0 0 0 -6 6v5.907a6 6 0 0 0 12 0v-5.907a6 6 0 0 0 -6-6z" fill="url(#linear-gradient)"/><path d="m64 308.574a6 6 0 0 0 -6 6v80.684a6 6 0 0 0 12 0v-80.684a6 6 0 0 0 -6-6z" fill="url(#linear-gradient)"/><path d="m317.511 451h-19.222a6 6 0 0 0 0 12h19.222a6 6 0 0 0 0-12z" fill="url(#linear-gradient-3)"/><path d="m279.8 451h-85.311a6 6 0 0 0 0 12h85.311a6 6 0 1 0 0-12z" fill="url(#linear-gradient-4)"/><path d="m224.755 420a6 6 0 0 0 0 12h91.739a6 6 0 0 0 0-12z" fill="url(#linear-gradient-5)"/><path d="m194.489 432h11.773a6 6 0 0 0 0-12h-11.773a6 6 0 0 0 0 12z" fill="url(#linear-gradient-6)"/><g fill="url(#linear-gradient-7)"><path d="m223.416 259.715 32.563-32.615 61.484 61.591a6 6 0 0 0 8.492 0l32.7-32.754a6 6 0 0 0 0-8.477l-61.5-61.606 47.469-47.554a29.193 29.193 0 0 0 0-41.189 28.879 28.879 0 0 0 -20.573-8.535 28.878 28.878 0 0 0 -20.573 8.535l-47.457 47.539-61.484-61.594a6 6 0 0 0 -8.492 0l-32.7 32.754a6 6 0 0 0 0 8.478l61.5 61.605-32.575 32.633a6 6 0 0 0 -1.329 2.02l-21.657 54.405a6 6 0 0 0 7.8 7.791l54.316-21.694a5.992 5.992 0 0 0 2.016-1.333zm88.554-154.129a17.064 17.064 0 0 1 24.162 0 17.177 17.177 0 0 1 0 24.233l-6.147 6.158-24.176-24.219zm-14.639 14.664 24.177 24.219-7.211 7.222-24.176-24.218zm-15.687 15.715 24.176 24.219-17.144 17.173-2.455-2.459-21.721-21.759zm-115.573-15.916 24.22-24.262 10.209 10.226-6.3 6.313a6 6 0 1 0 8.492 8.478l6.288-6.3 9.628 9.645-3.623 3.629a6 6 0 1 0 8.493 8.477l3.608-3.614 10.209 10.226-6.3 6.313a6 6 0 1 0 8.492 8.478l6.289-6.3 9.628 9.645-3.623 3.629a6 6 0 1 0 8.492 8.477l3.608-3.614 9.629 9.645-6.3 6.314a6 6 0 1 0 8.492 8.477l6.287-6.3 9.629 9.646-3.623 3.629a6 6 0 1 0 8.492 8.478l3.609-3.615 9.049 9.064-6.3 6.313a6 6 0 0 0 8.493 8.478l6.287-6.3 9.629 9.645-3.623 3.629a6 6 0 1 0 8.492 8.478l3.608-3.615 10.209 10.226-24.22 24.262zm9.529 146.371 4.112-10.33 6.2 6.211zm22.434-8.961-13.488-13.512 4.174-10.486 19.78 19.817zm-3.036-34.694 28.33-28.38 24.172 24.215-28.33 28.383z"/><path d="m459.55 229.016-65.55-39.061v-119.655a6.008 6.008 0 0 0 -1.843-4.318l-55.239-53.3a6 6 0 0 0 -4.167-1.682h-208.732a6.017 6.017 0 0 0 -6.019 6v172.882l-65.552 39.134a34.09 34.09 0 0 0 -16.448 29.355v208.484c0 18.828 14.831 34.145 33.631 34.145h372.738c18.8 0 33.631-15.317 33.631-34.145v-208.483a34.089 34.089 0 0 0 -16.45-29.356zm-65.55-25.138 59.618 35.451a22.017 22.017 0 0 1 5.061 4.149l-64.679 45.232zm-55-172.749 34.255 32.871h-34.255zm-280.651 208.2 59.651-35.49v84.9l-64.71-45.248a21.94 21.94 0 0 1 5.059-4.162zm-10.349 227.526v-208.484a21.826 21.826 0 0 1 .144-4l86.91 60.881a5.974 5.974 0 1 0 6.851-9.789l-12.383-8.66.478.2v-274.003h197v47.249a5.751 5.751 0 0 0 5.751 5.751h49.249v221l.361-.151-126.383 88.384-79.162-55.359a5.974 5.974 0 0 0 -7.648.671l-.024.025a5.973 5.973 0 0 0 .8 9.117l14.418 10.1-135.779 123a22.087 22.087 0 0 1 -.583-5.932zm394.369 22.145h-372.738a21.987 21.987 0 0 1 -14.9-5.807l139.716-126.351 58.1 40.629a6 6 0 0 0 6.877 0l59.933-41.911 137.518 127.978a21.97 21.97 0 0 1 -14.506 5.462zm21.631-230.628v208.483a22.031 22.031 0 0 1 -.729 6.46l-133.971-124.788 134.5-94.176a21.924 21.924 0 0 1 .2 4.021z"/></g></svg>