<svg id="Layer_1" height="512" viewBox="0 0 512 512" width="512" xmlns="http://www.w3.org/2000/svg" xmlns:xlink="http://www.w3.org/1999/xlink" data-name="Layer 1"><linearGradient id="linear-gradient" gradientUnits="userSpaceOnUse" x1="256" x2="256" y1="475.594" y2="62.768"><stop offset=".322" stop-color="#a163f5"/><stop offset=".466" stop-color="#b074ee"/><stop offset=".752" stop-color="#d8a1dd"/><stop offset=".898" stop-color="#efbad3"/></linearGradient><linearGradient id="linear-gradient-2" x1="255.331" x2="255.331" xlink:href="#linear-gradient" y1="475.594" y2="62.768"/><linearGradient id="linear-gradient-3" x1="275.135" x2="275.135" xlink:href="#linear-gradient" y1="475.594" y2="62.768"/><linearGradient id="linear-gradient-4" x1="299.208" x2="299.208" xlink:href="#linear-gradient" y1="475.594" y2="62.768"/><linearGradient id="linear-gradient-5" x1="253.504" x2="253.504" xlink:href="#linear-gradient" y1="475.594" y2="62.768"/><linearGradient id="linear-gradient-6" x1="210.482" x2="210.482" xlink:href="#linear-gradient" y1="475.594" y2="62.768"/><linearGradient id="linear-gradient-7" x1="213.971" x2="213.971" xlink:href="#linear-gradient" y1="475.594" y2="62.768"/><linearGradient id="linear-gradient-8" x1="304.112" x2="304.112" xlink:href="#linear-gradient" y1="475.594" y2="62.768"/><linearGradient id="linear-gradient-9" x1="278" x2="278" xlink:href="#linear-gradient" y1="475.594" y2="62.768"/><linearGradient id="linear-gradient-10" x1="230.562" x2="230.562" xlink:href="#linear-gradient" y1="475.594" y2="62.768"/><linearGradient id="linear-gradient-11" x1="256" x2="256" xlink:href="#linear-gradient" y1="475.594" y2="62.768"/><linearGradient id="linear-gradient-12" x1="228.9" x2="228.9" xlink:href="#linear-gradient" y1="475.594" y2="62.768"/><linearGradient id="linear-gradient-13" x1="289.879" x2="289.879" xlink:href="#linear-gradient" y1="475.594" y2="62.768"/><linearGradient id="linear-gradient-14" x1="255.5" x2="255.5" xlink:href="#linear-gradient" y1="475.594" y2="62.768"/><path d="m256 474.676a14.3 14.3 0 1 0 -14.293-14.3 14.312 14.312 0 0 0 14.293 14.3zm0-16.6a2.3 2.3 0 1 1 -2.293 2.3 2.3 2.3 0 0 1 2.293-2.297z" fill="url(#linear-gradient)"/><path d="m169.662 251.014a5.908 5.908 0 0 0 3.721 5.645l20.617 8.066v42.726a6.093 6.093 0 0 0 4 5.621 151.932 151.932 0 0 0 106.295 0 5.82 5.82 0 0 0 3.7-5.621v-42.726l13-4.884v5.849l-5.319 12.323a32.563 32.563 0 0 0 -2.676 12.847v17.659c0 3.313 2.783 6.481 6.1 6.481h15.46a6.817 6.817 0 0 0 6.44-6.481v-17.895a32.751 32.751 0 0 0 -2.634-12.334l-5.366-12.633v-14.488a6.107 6.107 0 0 0 -3.929-5.655l-75.671-27.871a6 6 0 0 0 -4.142-.02l-75.666 27.821a6 6 0 0 0 -3.93 5.57zm155.338 39.846a20.592 20.592 0 0 1 1.713-8.13l.143-.279.382.368a20.835 20.835 0 0 1 1.762 7.805v12.376h-4zm-29 12.359a139.6 139.6 0 0 1 -90 0v-2.576a153 153 0 0 0 45 6.847 148.149 148.149 0 0 0 45-6.847zm0-15.19a139.576 139.576 0 0 1 -90 0v-18.629l43.049 16.727a6.267 6.267 0 0 0 2.228.409 4.983 4.983 0 0 0 1.976-.409l42.747-16.727zm-44.672-58.4 58.722 21.6-58.722 22.871-58.721-22.869z" fill="url(#linear-gradient-2)"/><path d="m306.054 395h-61.837a6 6 0 1 0 0 12h61.837a6 6 0 0 0 0-12z" fill="url(#linear-gradient-3)"/><path d="m306.054 365h-13.693a6 6 0 0 0 0 12h13.693a6 6 0 0 0 0-12z" fill="url(#linear-gradient-4)"/><path d="m277.062 371a6 6 0 0 0 -6-6h-35.116a6 6 0 0 0 0 12h35.116a6 6 0 0 0 6-6z" fill="url(#linear-gradient-5)"/><path d="m205.946 377h9.072a6 6 0 1 0 0-12h-9.072a6 6 0 0 0 0 12z" fill="url(#linear-gradient-6)"/><path d="m222 395h-16.054a6 6 0 0 0 0 12h16.054a6 6 0 0 0 0-12z" fill="url(#linear-gradient-7)"/><path d="m306.054 336h-3.884a6 6 0 0 0 0 12h3.884a6 6 0 0 0 0-12z" fill="url(#linear-gradient-8)"/><path d="m282.822 348a6 6 0 0 0 0-12h-9.645a6 6 0 0 0 0 12z" fill="url(#linear-gradient-9)"/><path d="m205.946 348h49.231a6 6 0 1 0 0-12h-49.231a6 6 0 0 0 0 12z" fill="url(#linear-gradient-10)"/><path d="m459.362 281h-.062l-.064-17.362a33.135 33.135 0 0 0 -9.94-23.507 35.3 35.3 0 0 0 -14.296-8.331v-41.9c0-98.866-80.2-179.3-179-179.3s-179 80.436-179 179.3v41.783a33.143 33.143 0 0 0 -24 32.067v17.25h-.494a36.5 36.5 0 0 0 0 73h.494v10.091a33.171 33.171 0 0 0 66.311 1.578l-.078-103.5a33.665 33.665 0 0 0 -30.233-31.619v-40.65a166.633 166.633 0 0 1 43.231-112.247 35.838 35.838 0 0 0 44.392 3.523 143.326 143.326 0 0 1 158.812 0 35.385 35.385 0 0 0 27.965 5.157 36.275 36.275 0 0 0 16.352-8.7 166.63 166.63 0 0 1 43.248 112.267v40.7c-17 1.393-31 15.83-30 33.337v.018l.146 100.071a32.976 32.976 0 0 0 33.116 32.974h.123a33.082 33.082 0 0 0 33.215-33.165l-.038-9.835h.065a36.5 36.5 0 0 0 -.265-73zm-406.362 61h-.494a24.5 24.5 0 0 1 0-49h.494zm54 14.342c-3-2.109-6-5.938-6-10.316v-64.209c0-4.379 3-8.207 6-10.316zm-.567-97.586a24.256 24.256 0 0 0 -17.433 23.061v64.209a24.256 24.256 0 0 0 17.433 23.061 20.978 20.978 0 0 1 -41.433-5v-100.335a20.978 20.978 0 0 1 41.433-5zm254.242-184.109a23.571 23.571 0 0 1 -18.592-3.453 155.381 155.381 0 0 0 -172.166 0c-10.243 6.836-21.982 4.4-29.377-2.174a166.808 166.808 0 0 1 230.932.012 24.57 24.57 0 0 1 -10.797 5.615zm43.914 196.881a11.993 11.993 0 0 1 6.072 10.412l.235 64.208a12.049 12.049 0 0 1 -6 10.449zm21.753 113.472h-.08a21.141 21.141 0 0 1 -20.689-15.97 23.934 23.934 0 0 0 17.327-23.049l-.235-64.147a23.826 23.826 0 0 0 -7.1-16.945 24.373 24.373 0 0 0 -10.389-6.3c2.241-9.342 10.624-15.589 20.643-16.589h.081a21.754 21.754 0 0 1 21.333 21.62l.367 100.152a21.175 21.175 0 0 1 -21.258 21.228zm50.458-50.251a24.166 24.166 0 0 1 -17.217 7.251h-.063l-.179-49h.064a24.516 24.516 0 0 1 17.395 41.749z" fill="url(#linear-gradient-11)"/><path d="m219.044 97.787a6.036 6.036 0 0 0 1.484-.187 143.027 143.027 0 0 1 18.91-3.477 6 6 0 1 0 -1.371-11.923 155.242 155.242 0 0 0 -20.5 3.769 6 6 0 0 0 1.477 11.816z" fill="url(#linear-gradient-12)"/><path d="m292.71 97.921a142.664 142.664 0 0 1 22.29 7.926 6 6 0 1 0 4.947-10.932 154.478 154.478 0 0 0 -57.413-13.6 6 6 0 1 0 -.5 11.989 143.472 143.472 0 0 1 30.676 4.617z" fill="url(#linear-gradient-13)"/><path d="m315 137h-119a46 46 0 0 0 -46 46v273a46 46 0 0 0 46 46h119a46 46 0 0 0 46-46v-273a46 46 0 0 0 -46-46zm35 318.4c0 18.748-15.734 33.6-34.482 33.6h-119.036c-18.748 0-34.482-14.855-34.482-33.6v-19.4h188zm0-271.4h-131a6 6 0 0 0 0 12h131v228h-188v-228h15a6 6 0 0 0 0-12h-15v-1.406a33.6 33.6 0 0 1 33.594-33.594h119.924a34.584 34.584 0 0 1 34.482 34.482z" fill="url(#linear-gradient-14)"/></svg>